<?xml version="1.0" standalone="no"?>
<svg xmlns:xlink="http://www.w3.org/1999/xlink" id="wave" style="transform:rotate(180deg); transition: 0.3s" viewBox="0 0 1440 290" version="1.1" xmlns="http://www.w3.org/2000/svg"><defs><linearGradient id="sw-gradient-0" x1="0" x2="0" y1="1" y2="0"><stop stop-color="rgba(40, 58, 90, 0.9)" offset="0%"/><stop stop-color="rgba(111.805, 163.355, 255, 0.9)" offset="100%"/></linearGradient></defs><path style="transform:translate(0, 0px); opacity:1" fill="url(#sw-gradient-0)" d="M0,87L48,82.2C96,77,192,68,288,67.7C384,68,480,77,576,87C672,97,768,106,864,96.7C960,87,1056,58,1152,62.8C1248,68,1344,106,1440,130.5C1536,155,1632,164,1728,174C1824,184,1920,193,2016,188.5C2112,184,2208,164,2304,135.3C2400,106,2496,68,2592,82.2C2688,97,2784,164,2880,178.8C2976,193,3072,155,3168,154.7C3264,155,3360,193,3456,198.2C3552,203,3648,174,3744,135.3C3840,97,3936,48,4032,53.2C4128,58,4224,116,4320,130.5C4416,145,4512,116,4608,96.7C4704,77,4800,68,4896,72.5C4992,77,5088,97,5184,91.8C5280,87,5376,58,5472,48.3C5568,39,5664,48,5760,48.3C5856,48,5952,39,6048,48.3C6144,58,6240,87,6336,96.7C6432,106,6528,97,6624,116C6720,135,6816,184,6864,207.8L6912,232L6912,290L6864,290C6816,290,6720,290,6624,290C6528,290,6432,290,6336,290C6240,290,6144,290,6048,290C5952,290,5856,290,5760,290C5664,290,5568,290,5472,290C5376,290,5280,290,5184,290C5088,290,4992,290,4896,290C4800,290,4704,290,4608,290C4512,290,4416,290,4320,290C4224,290,4128,290,4032,290C3936,290,3840,290,3744,290C3648,290,3552,290,3456,290C3360,290,3264,290,3168,290C3072,290,2976,290,2880,290C2784,290,2688,290,2592,290C2496,290,2400,290,2304,290C2208,290,2112,290,2016,290C1920,290,1824,290,1728,290C1632,290,1536,290,1440,290C1344,290,1248,290,1152,290C1056,290,960,290,864,290C768,290,672,290,576,290C480,290,384,290,288,290C192,290,96,290,48,290L0,290Z"/></svg>